<svg width="489" height="65" viewBox="0 0 489 65" fill="none" xmlns="http://www.w3.org/2000/svg">
<circle cx="32.5" cy="32.5" r="32.5" fill="#053016"/>
<path d="M34.6193 25.4545V40H32.858V27.3011H32.7727L29.2216 29.6591V27.8693L32.858 25.4545H34.6193Z" fill="white"/>
<circle cx="138.5" cy="32.5" r="32.5" fill="#053016"/>
<path d="M133.506 40V38.7216L138.307 33.4659C138.87 32.8504 139.334 32.3153 139.699 31.8608C140.063 31.4015 140.333 30.9706 140.509 30.5682C140.688 30.161 140.778 29.7348 140.778 29.2898C140.778 28.7784 140.655 28.3357 140.409 27.9616C140.168 27.5876 139.836 27.2988 139.415 27.0952C138.993 26.8916 138.52 26.7898 137.994 26.7898C137.436 26.7898 136.948 26.9058 136.531 27.1378C136.119 27.3651 135.8 27.6847 135.572 28.0966C135.35 28.5085 135.239 28.9915 135.239 29.5455H133.562C133.562 28.6932 133.759 27.9451 134.152 27.3011C134.545 26.6572 135.08 26.1553 135.757 25.7955C136.439 25.4356 137.204 25.2557 138.051 25.2557C138.903 25.2557 139.659 25.4356 140.317 25.7955C140.975 26.1553 141.491 26.6406 141.865 27.2514C142.239 27.8622 142.426 28.5417 142.426 29.2898C142.426 29.8248 142.329 30.348 142.135 30.8594C141.946 31.366 141.614 31.9318 141.141 32.5568C140.672 33.1771 140.021 33.9347 139.188 34.8295L135.92 38.3239V38.4375H142.682V40H133.506Z" fill="white"/>
<circle cx="244.5" cy="32.5" r="32.5" fill="#053016"/>
<path d="M244.42 40.1989C243.483 40.1989 242.647 40.0379 241.913 39.7159C241.184 39.3939 240.604 38.9465 240.173 38.3736C239.747 37.7959 239.515 37.1259 239.477 36.3636H241.267C241.305 36.8324 241.466 37.2372 241.75 37.5781C242.034 37.9143 242.406 38.1747 242.865 38.3594C243.324 38.544 243.833 38.6364 244.392 38.6364C245.017 38.6364 245.571 38.5275 246.054 38.3097C246.537 38.0919 246.916 37.7888 247.19 37.4006C247.465 37.0123 247.602 36.5625 247.602 36.0511C247.602 35.5161 247.47 35.045 247.205 34.6378C246.939 34.2259 246.551 33.9039 246.04 33.6719C245.528 33.4399 244.903 33.3239 244.165 33.3239H243V31.7614H244.165C244.742 31.7614 245.249 31.6572 245.685 31.4489C246.125 31.2405 246.468 30.947 246.714 30.5682C246.965 30.1894 247.091 29.7443 247.091 29.233C247.091 28.7405 246.982 28.312 246.764 27.9474C246.546 27.5829 246.239 27.2988 245.841 27.0952C245.448 26.8916 244.984 26.7898 244.449 26.7898C243.947 26.7898 243.473 26.8821 243.028 27.0668C242.588 27.2467 242.228 27.5095 241.949 27.8551C241.67 28.196 241.518 28.608 241.494 29.0909H239.79C239.818 28.3286 240.048 27.661 240.479 27.0881C240.91 26.5104 241.473 26.0606 242.169 25.7386C242.87 25.4167 243.639 25.2557 244.477 25.2557C245.377 25.2557 246.149 25.438 246.793 25.8026C247.437 26.1624 247.931 26.6383 248.277 27.2301C248.623 27.822 248.795 28.4612 248.795 29.1477C248.795 29.9669 248.58 30.6652 248.149 31.2429C247.723 31.8205 247.143 32.2206 246.409 32.4432V32.5568C247.328 32.7083 248.045 33.099 248.561 33.7287C249.077 34.3537 249.335 35.1278 249.335 36.0511C249.335 36.8419 249.12 37.5521 248.689 38.1818C248.263 38.8068 247.68 39.2992 246.942 39.6591C246.203 40.0189 245.363 40.1989 244.42 40.1989Z" fill="white"/>
<circle cx="350.5" cy="32.5" r="32.5" fill="#053016"/>
<path d="M345.165 37.017V35.5682L351.557 25.4545H352.608V27.6989H351.898L347.068 35.3409V35.4545H355.676V37.017H345.165ZM352.011 40V36.5767V35.902V25.4545H353.688V40H352.011Z" fill="white"/>
<circle cx="456.5" cy="32.5" r="32.5" fill="#053016"/>
<path d="M456.051 40.1989C455.218 40.1989 454.467 40.0331 453.8 39.7017C453.132 39.3703 452.597 38.9157 452.195 38.3381C451.792 37.7604 451.572 37.1023 451.534 36.3636H453.239C453.305 37.0218 453.603 37.5663 454.134 37.9972C454.669 38.4233 455.308 38.6364 456.051 38.6364C456.648 38.6364 457.178 38.4967 457.642 38.2173C458.111 37.938 458.478 37.5545 458.743 37.0668C459.013 36.5743 459.148 36.018 459.148 35.3977C459.148 34.7633 459.008 34.1974 458.729 33.7003C458.454 33.1984 458.075 32.803 457.592 32.5142C457.109 32.2254 456.558 32.0786 455.938 32.0739C455.492 32.0691 455.036 32.1378 454.567 32.2798C454.098 32.4171 453.712 32.5947 453.409 32.8125L451.761 32.6136L452.642 25.4545H460.199V27.017H454.119L453.608 31.3068H453.693C453.991 31.0701 454.366 30.8736 454.815 30.7173C455.265 30.5611 455.734 30.483 456.222 30.483C457.112 30.483 457.905 30.696 458.601 31.1222C459.302 31.5436 459.851 32.1212 460.249 32.8551C460.651 33.589 460.852 34.4271 460.852 35.3693C460.852 36.2973 460.644 37.1259 460.227 37.8551C459.815 38.5795 459.247 39.1525 458.523 39.5739C457.798 39.9905 456.974 40.1989 456.051 40.1989Z" fill="white"/>
</svg>
