<svg width="536" height="370" viewBox="0 0 536 370" fill="none" xmlns="http://www.w3.org/2000/svg">
<line x1="390.082" y1="283.493" x2="5.082" y2="347.493" stroke="black"/>
<line x1="468.75" y1="281.433" x2="-17.2503" y2="0.432872" stroke="black"/>
<circle cx="176.5" cy="111.5" r="49.5" fill="#345A13"/>
<line x1="312.888" y1="250.487" x2="-0.112094" y2="178.487" stroke="black"/>
<circle cx="-0.5" cy="342.5" r="27.5" fill="#053016"/>
<circle cx="99.5" cy="205.5" r="27.5" fill="#053016"/>
<circle cx="46.5" cy="31.5" r="31.5" fill="#053016"/>
<circle cx="426.5" cy="237.5" r="109.5" fill="#053016"/>
<circle cx="174" cy="307" r="42" fill="#345A13"/>
<line x1="390.082" y1="283.493" x2="5.082" y2="347.493" stroke="black"/>
<line x1="468.75" y1="281.433" x2="-17.2503" y2="0.432872" stroke="black"/>
<circle cx="176.5" cy="111.5" r="49.5" fill="#345A13"/>
<line x1="312.888" y1="250.487" x2="-0.112094" y2="178.487" stroke="black"/>
<circle cx="-0.5" cy="342.5" r="27.5" fill="#053016"/>
<circle cx="99.5" cy="205.5" r="27.5" fill="#053016"/>
<circle cx="46.5" cy="31.5" r="31.5" fill="#053016"/>
<circle cx="426.5" cy="237.5" r="109.5" fill="#053016"/>
<circle cx="174" cy="307" r="42" fill="#345A13"/>
</svg>
