<svg width="145" height="87" viewBox="0 0 145 87" fill="none" xmlns="http://www.w3.org/2000/svg">
<path d="M10.112 35.224C8.46933 35.224 6.99733 34.9573 5.696 34.424C4.39467 33.8907 3.34933 33.1013 2.56 32.056C1.792 31.0107 1.38667 29.752 1.344 28.28H7.168C7.25333 29.112 7.54133 29.752 8.032 30.2C8.52267 30.6267 9.16267 30.84 9.952 30.84C10.7627 30.84 11.4027 30.6587 11.872 30.296C12.3413 29.912 12.576 29.3893 12.576 28.728C12.576 28.1733 12.384 27.7147 12 27.352C11.6373 26.9893 11.1787 26.6907 10.624 26.456C10.0907 26.2213 9.32267 25.9547 8.32 25.656C6.86933 25.208 5.68533 24.76 4.768 24.312C3.85067 23.864 3.06133 23.2027 2.4 22.328C1.73867 21.4533 1.408 20.312 1.408 18.904C1.408 16.8133 2.16533 15.1813 3.68 14.008C5.19467 12.8133 7.168 12.216 9.6 12.216C12.0747 12.216 14.0693 12.8133 15.584 14.008C17.0987 15.1813 17.9093 16.824 18.016 18.936H12.096C12.0533 18.2107 11.7867 17.6453 11.296 17.24C10.8053 16.8133 10.176 16.6 9.408 16.6C8.74667 16.6 8.21333 16.7813 7.808 17.144C7.40267 17.4853 7.2 17.9867 7.2 18.648C7.2 19.3733 7.54133 19.9387 8.224 20.344C8.90667 20.7493 9.97333 21.1867 11.424 21.656C12.8747 22.1467 14.048 22.616 14.944 23.064C15.8613 23.512 16.6507 24.1627 17.312 25.016C17.9733 25.8693 18.304 26.968 18.304 28.312C18.304 29.592 17.9733 30.7547 17.312 31.8C16.672 32.8453 15.7333 33.6773 14.496 34.296C13.2587 34.9147 11.7973 35.224 10.112 35.224ZM20.5835 26.072C20.5835 24.216 20.9568 22.5947 21.7035 21.208C22.4715 19.8213 23.5275 18.7547 24.8715 18.008C26.2368 17.2613 27.7942 16.888 29.5435 16.888C31.7835 16.888 33.6502 17.4747 35.1435 18.648C36.6582 19.8213 37.6502 21.4747 38.1195 23.608H32.2955C31.8048 22.2427 30.8555 21.56 29.4475 21.56C28.4448 21.56 27.6448 21.9547 27.0475 22.744C26.4502 23.512 26.1515 24.6213 26.1515 26.072C26.1515 27.5227 26.4502 28.6427 27.0475 29.432C27.6448 30.2 28.4448 30.584 29.4475 30.584C30.8555 30.584 31.8048 29.9013 32.2955 28.536H38.1195C37.6502 30.6267 36.6582 32.2693 35.1435 33.464C33.6288 34.6587 31.7622 35.256 29.5435 35.256C27.7942 35.256 26.2368 34.8827 24.8715 34.136C23.5275 33.3893 22.4715 32.3227 21.7035 30.936C20.9568 29.5493 20.5835 27.928 20.5835 26.072ZM43.7985 15.288C42.8385 15.288 42.0492 15.0107 41.4305 14.456C40.8332 13.88 40.5345 13.176 40.5345 12.344C40.5345 11.4907 40.8332 10.7867 41.4305 10.232C42.0492 9.656 42.8385 9.368 43.7985 9.368C44.7372 9.368 45.5052 9.656 46.1025 10.232C46.7212 10.7867 47.0305 11.4907 47.0305 12.344C47.0305 13.176 46.7212 13.88 46.1025 14.456C45.5052 15.0107 44.7372 15.288 43.7985 15.288ZM46.5185 17.144V35H41.0465V17.144H46.5185ZM67.316 25.784C67.316 26.296 67.284 26.8293 67.22 27.384H54.836C54.9213 28.4933 55.2733 29.3467 55.892 29.944C56.532 30.52 57.3107 30.808 58.228 30.808C59.5933 30.808 60.5427 30.232 61.076 29.08H66.9C66.6013 30.2533 66.0573 31.3093 65.268 32.248C64.5 33.1867 63.5293 33.9227 62.356 34.456C61.1827 34.9893 59.8707 35.256 58.42 35.256C56.6707 35.256 55.1133 34.8827 53.748 34.136C52.3827 33.3893 51.316 32.3227 50.548 30.936C49.78 29.5493 49.396 27.928 49.396 26.072C49.396 24.216 49.7693 22.5947 50.516 21.208C51.284 19.8213 52.3507 18.7547 53.716 18.008C55.0813 17.2613 56.6493 16.888 58.42 16.888C60.148 16.888 61.684 17.2507 63.028 17.976C64.372 18.7013 65.4173 19.736 66.164 21.08C66.932 22.424 67.316 23.992 67.316 25.784ZM61.716 24.344C61.716 23.4053 61.396 22.6587 60.756 22.104C60.116 21.5493 59.316 21.272 58.356 21.272C57.4387 21.272 56.66 21.5387 56.02 22.072C55.4013 22.6053 55.0173 23.3627 54.868 24.344H61.716ZM81.0828 16.952C83.1734 16.952 84.8374 17.6347 86.0748 19C87.3334 20.344 87.9628 22.2 87.9628 24.568V35H82.5228V25.304C82.5228 24.1093 82.2134 23.1813 81.5948 22.52C80.9761 21.8587 80.1441 21.528 79.0988 21.528C78.0534 21.528 77.2214 21.8587 76.6028 22.52C75.9841 23.1813 75.6748 24.1093 75.6748 25.304V35H70.2028V17.144H75.6748V19.512C76.2294 18.7227 76.9761 18.104 77.9148 17.656C78.8534 17.1867 79.9094 16.952 81.0828 16.952ZM90.6773 26.072C90.6773 24.216 91.0506 22.5947 91.7973 21.208C92.5653 19.8213 93.6213 18.7547 94.9653 18.008C96.3306 17.2613 97.8879 16.888 99.6373 16.888C101.877 16.888 103.744 17.4747 105.237 18.648C106.752 19.8213 107.744 21.4747 108.213 23.608H102.389C101.899 22.2427 100.949 21.56 99.5413 21.56C98.5386 21.56 97.7386 21.9547 97.1413 22.744C96.5439 23.512 96.2453 24.6213 96.2453 26.072C96.2453 27.5227 96.5439 28.6427 97.1413 29.432C97.7386 30.2 98.5386 30.584 99.5413 30.584C100.949 30.584 101.899 29.9013 102.389 28.536H108.213C107.744 30.6267 106.752 32.2693 105.237 33.464C103.723 34.6587 101.856 35.256 99.6373 35.256C97.8879 35.256 96.3306 34.8827 94.9653 34.136C93.6213 33.3893 92.5653 32.3227 91.7973 30.936C91.0506 29.5493 90.6773 27.928 90.6773 26.072ZM127.972 25.784C127.972 26.296 127.94 26.8293 127.876 27.384H115.492C115.578 28.4933 115.93 29.3467 116.548 29.944C117.188 30.52 117.967 30.808 118.884 30.808C120.25 30.808 121.199 30.232 121.732 29.08H127.556C127.258 30.2533 126.714 31.3093 125.924 32.248C125.156 33.1867 124.186 33.9227 123.012 34.456C121.839 34.9893 120.527 35.256 119.076 35.256C117.327 35.256 115.77 34.8827 114.404 34.136C113.039 33.3893 111.972 32.3227 111.204 30.936C110.436 29.5493 110.052 27.928 110.052 26.072C110.052 24.216 110.426 22.5947 111.172 21.208C111.94 19.8213 113.007 18.7547 114.372 18.008C115.738 17.2613 117.306 16.888 119.076 16.888C120.804 16.888 122.34 17.2507 123.684 17.976C125.028 18.7013 126.074 19.736 126.82 21.08C127.588 22.424 127.972 23.992 127.972 25.784ZM122.372 24.344C122.372 23.4053 122.052 22.6587 121.412 22.104C120.772 21.5493 119.972 21.272 119.012 21.272C118.095 21.272 117.316 21.5387 116.676 22.072C116.058 22.6053 115.674 23.3627 115.524 24.344H122.372Z" fill="#0094C6"/>
<path d="M83.144 51.536V55.92H77.192V74H71.72V55.92H65.768V51.536H83.144ZM102.722 64.784C102.722 65.296 102.69 65.8293 102.626 66.384H90.2423C90.3276 67.4933 90.6796 68.3467 91.2983 68.944C91.9383 69.52 92.7169 69.808 93.6343 69.808C94.9996 69.808 95.9489 69.232 96.4823 68.08H102.306C102.008 69.2533 101.464 70.3093 100.674 71.248C99.9063 72.1867 98.9356 72.9227 97.7623 73.456C96.5889 73.9893 95.2769 74.256 93.8263 74.256C92.0769 74.256 90.5196 73.8827 89.1543 73.136C87.7889 72.3893 86.7223 71.3227 85.9543 69.936C85.1863 68.5493 84.8023 66.928 84.8023 65.072C84.8023 63.216 85.1756 61.5947 85.9223 60.208C86.6903 58.8213 87.7569 57.7547 89.1223 57.008C90.4876 56.2613 92.0556 55.888 93.8263 55.888C95.5543 55.888 97.0903 56.2507 98.4343 56.976C99.7783 57.7013 100.824 58.736 101.57 60.08C102.338 61.424 102.722 62.992 102.722 64.784ZM97.1223 63.344C97.1223 62.4053 96.8023 61.6587 96.1623 61.104C95.5223 60.5493 94.7223 60.272 93.7623 60.272C92.8449 60.272 92.0663 60.5387 91.4263 61.072C90.8076 61.6053 90.4236 62.3627 90.2743 63.344H97.1223ZM104.521 65.072C104.521 63.216 104.894 61.5947 105.641 60.208C106.409 58.8213 107.465 57.7547 108.809 57.008C110.174 56.2613 111.732 55.888 113.481 55.888C115.721 55.888 117.588 56.4747 119.081 57.648C120.596 58.8213 121.588 60.4747 122.057 62.608H116.233C115.742 61.2427 114.793 60.56 113.385 60.56C112.382 60.56 111.582 60.9547 110.985 61.744C110.388 62.512 110.089 63.6213 110.089 65.072C110.089 66.5227 110.388 67.6427 110.985 68.432C111.582 69.2 112.382 69.584 113.385 69.584C114.793 69.584 115.742 68.9013 116.233 67.536H122.057C121.588 69.6267 120.596 71.2693 119.081 72.464C117.566 73.6587 115.7 74.256 113.481 74.256C111.732 74.256 110.174 73.8827 108.809 73.136C107.465 72.3893 106.409 71.3227 105.641 69.936C104.894 68.5493 104.521 66.928 104.521 65.072ZM135.96 55.952C138.008 55.952 139.651 56.6347 140.888 58C142.125 59.344 142.744 61.2 142.744 63.568V74H137.304V64.304C137.304 63.1093 136.995 62.1813 136.376 61.52C135.757 60.8587 134.925 60.528 133.88 60.528C132.835 60.528 132.003 60.8587 131.384 61.52C130.765 62.1813 130.456 63.1093 130.456 64.304V74H124.984V50.32H130.456V58.544C131.011 57.7547 131.768 57.1253 132.728 56.656C133.688 56.1867 134.765 55.952 135.96 55.952Z" fill="#001242"/>
</svg>
